<mxfile host="app.diagrams.net" modified="2023-05-03T03:42:49.364Z" agent="Mozilla/5.0 (Windows NT 10.0; Win64; x64) AppleWebKit/537.36 (KHTML, like Gecko) Chrome/112.0.0.0 Safari/537.36 Edg/112.0.1722.64" etag="8_IQQGDRYpy9m__wTDvh" version="21.2.6" type="github" pages="2">
  <diagram id="5ORifNCMCiOub-9MQPXt" name="第 1 页">
    <mxGraphModel dx="1434" dy="802" grid="1" gridSize="10" guides="1" tooltips="1" connect="1" arrows="1" fold="1" page="1" pageScale="1" pageWidth="827" pageHeight="1169" background="none" math="0" shadow="1">
      <root>
        <mxCell id="0" />
        <mxCell id="1" parent="0" />
        <mxCell id="Kxiscqi6HtAr0AaPUoES-5" value="&lt;p class=&quot;MsoNormal&quot; style=&quot;font-size: 19px&quot;&gt;&lt;span style=&quot;color: rgb(62 , 61 , 64) ; letter-spacing: 0pt ; text-transform: none ; font-style: normal ; font-size: 19px&quot;&gt;&lt;font style=&quot;font-size: 19px&quot;&gt;Domestication (I)&lt;/font&gt;&lt;/span&gt;&lt;/p&gt;" style="whiteSpace=wrap;html=1;fontFamily=Helvetica;fontStyle=1;strokeWidth=2;arcSize=12;fontSize=19;labelBackgroundColor=none;fillColor=#dae8fc;strokeColor=#6c8ebf;shadow=0;rounded=1;" parent="1" vertex="1">
          <mxGeometry x="75.73" y="107.5" width="170" height="59" as="geometry" />
        </mxCell>
        <mxCell id="Kxiscqi6HtAr0AaPUoES-6" value="&lt;p class=&quot;MsoNormal&quot; style=&quot;font-size: 19px&quot;&gt;&lt;span style=&quot;color: rgb(62 , 61 , 64) ; letter-spacing: 0pt ; text-transform: none ; font-style: normal ; font-size: 19px&quot;&gt;Breeds-specific&amp;nbsp;&lt;/span&gt;&lt;span style=&quot;color: rgb(62 , 61 , 64) ; letter-spacing: 0pt&quot;&gt;(IV)&lt;/span&gt;&lt;/p&gt;&lt;p class=&quot;MsoNormal&quot; style=&quot;font-size: 19px&quot;&gt;&lt;span style=&quot;color: rgb(62 , 61 , 64) ; letter-spacing: 0pt ; text-transform: none ; font-style: normal ; font-size: 19px&quot;&gt;&lt;/span&gt;&lt;/p&gt;" style="whiteSpace=wrap;html=1;fontFamily=Helvetica;fontStyle=1;strokeWidth=2;arcSize=12;fontSize=19;labelBackgroundColor=none;fillColor=#d5e8d4;strokeColor=#82b366;rounded=1;" parent="1" vertex="1">
          <mxGeometry x="255.73000000000002" y="340" width="150" height="57" as="geometry" />
        </mxCell>
        <mxCell id="Kxiscqi6HtAr0AaPUoES-7" value="&lt;p class=&quot;MsoNormal&quot; style=&quot;font-size: 19px&quot;&gt;&lt;span style=&quot;color: rgb(62 , 61 , 64) ; letter-spacing: 0pt ; text-transform: none ; font-style: normal ; font-size: 19px&quot;&gt;&lt;font style=&quot;font-size: 19px&quot;&gt;Sheep QTLdb (V)&lt;/font&gt;&lt;/span&gt;&lt;/p&gt;" style="whiteSpace=wrap;html=1;fontFamily=Helvetica;fontStyle=1;strokeWidth=2;arcSize=12;fontSize=19;labelBackgroundColor=none;fillColor=#d5e8d4;strokeColor=#82b366;rounded=1;" parent="1" vertex="1">
          <mxGeometry x="415.73" y="340" width="160" height="57" as="geometry" />
        </mxCell>
        <mxCell id="Kxiscqi6HtAr0AaPUoES-10" value="&lt;p class=&quot;MsoNormal&quot; style=&quot;font-size: 19px&quot;&gt;&lt;span style=&quot;color: rgb(62 , 61 , 64) ; letter-spacing: 0pt ; text-transform: none ; font-style: normal ; font-size: 19px&quot;&gt;Selection sweeps&lt;/span&gt;&lt;/p&gt;" style="whiteSpace=wrap;html=1;fontFamily=Helvetica;fontStyle=1;strokeWidth=2;arcSize=12;fontSize=19;labelBackgroundColor=none;fillColor=#dae8fc;strokeColor=#6c8ebf;rounded=1;" parent="1" vertex="1">
          <mxGeometry x="75.73" y="340" width="170" height="57" as="geometry" />
        </mxCell>
        <mxCell id="Kxiscqi6HtAr0AaPUoES-11" value="&lt;p class=&quot;MsoNormal&quot; style=&quot;font-size: 19px&quot;&gt;&lt;span style=&quot;color: rgb(62 , 61 , 64) ; letter-spacing: 0pt ; text-transform: none ; font-style: normal ; font-size: 19px&quot;&gt;Selection&amp;nbsp;&lt;/span&gt;&lt;span style=&quot;color: rgb(62 , 61 , 64) ; letter-spacing: 0pt&quot;&gt;sweeps of EUR&amp;nbsp;&lt;/span&gt;&lt;span style=&quot;color: rgb(62 , 61 , 64) ; letter-spacing: 0pt&quot;&gt;(III)&lt;/span&gt;&lt;/p&gt;" style="whiteSpace=wrap;html=1;fontFamily=Helvetica;fontStyle=1;strokeWidth=2;arcSize=12;fontSize=19;labelBackgroundColor=none;fillColor=#dae8fc;strokeColor=#6c8ebf;shadow=0;rounded=1;" parent="1" vertex="1">
          <mxGeometry x="75.73" y="247.5" width="170" height="59" as="geometry" />
        </mxCell>
        <mxCell id="Kxiscqi6HtAr0AaPUoES-12" value="&lt;p class=&quot;MsoNormal&quot; style=&quot;font-size: 19px&quot;&gt;&lt;span style=&quot;color: rgb(62 , 61 , 64) ; letter-spacing: 0pt ; text-transform: none ; font-style: normal ; font-size: 19px&quot;&gt;&lt;font style=&quot;font-size: 19px&quot;&gt;Selection sweeps of CN&amp;nbsp;&lt;/font&gt;&lt;/span&gt;&lt;span style=&quot;color: rgb(62 , 61 , 64) ; letter-spacing: 0pt&quot;&gt;(II)&lt;/span&gt;&lt;/p&gt;" style="whiteSpace=wrap;html=1;fontFamily=Helvetica;fontStyle=1;strokeWidth=2;arcSize=12;fontSize=19;labelBackgroundColor=none;fillColor=#dae8fc;strokeColor=#6c8ebf;shadow=0;rounded=1;" parent="1" vertex="1">
          <mxGeometry x="75.73" y="177" width="170" height="58.5" as="geometry" />
        </mxCell>
        <mxCell id="Kxiscqi6HtAr0AaPUoES-22" value="&lt;p class=&quot;MsoNormal&quot; style=&quot;font-size: 19px&quot;&gt;&lt;font color=&quot;#3e3d40&quot;&gt;Association (VI)&lt;/font&gt;&lt;/p&gt;" style="whiteSpace=wrap;html=1;fontFamily=Helvetica;fontStyle=1;strokeWidth=2;arcSize=12;fontSize=19;labelBackgroundColor=none;fillColor=#ffe6cc;strokeColor=#d79b00;rounded=1;" parent="1" vertex="1">
          <mxGeometry x="585.73" y="106.5" width="170" height="60" as="geometry" />
        </mxCell>
        <mxCell id="Kxiscqi6HtAr0AaPUoES-14" value="&lt;p class=&quot;MsoNormal&quot; style=&quot;font-size: 19px&quot;&gt;&lt;span style=&quot;color: rgb(62 , 61 , 64) ; letter-spacing: 0pt ; text-transform: none ; font-style: normal ; font-size: 19px&quot;&gt;&lt;font style=&quot;font-size: 19px&quot;&gt;Y chromosome&amp;nbsp;&lt;/font&gt;&lt;/span&gt;&lt;span style=&quot;color: rgb(62 , 61 , 64) ; letter-spacing: 0pt&quot;&gt;(VII)&lt;/span&gt;&lt;/p&gt;" style="whiteSpace=wrap;html=1;fontFamily=Helvetica;fontStyle=1;strokeWidth=2;arcSize=12;fontSize=19;labelBackgroundColor=none;fillColor=#ffe6cc;strokeColor=#d79b00;rounded=1;" parent="1" vertex="1">
          <mxGeometry x="585.73" y="175.5" width="170" height="60" as="geometry" />
        </mxCell>
        <mxCell id="Kxiscqi6HtAr0AaPUoES-15" value="&lt;p class=&quot;MsoNormal&quot; style=&quot;font-size: 19px&quot;&gt;&lt;span style=&quot;color: rgb(62 , 61 , 64) ; letter-spacing: 0pt ; text-transform: none ; font-size: 19px&quot;&gt;&lt;font style=&quot;font-size: 19px&quot;&gt;Brucella (VIII)&lt;/font&gt;&lt;/span&gt;&lt;/p&gt;" style="whiteSpace=wrap;html=1;fontFamily=Helvetica;fontStyle=1;strokeWidth=2;arcSize=12;fontSize=19;labelBackgroundColor=none;fillColor=#ffe6cc;strokeColor=#d79b00;rounded=1;" parent="1" vertex="1">
          <mxGeometry x="585.73" y="246.5" width="170" height="60" as="geometry" />
        </mxCell>
        <mxCell id="Kxiscqi6HtAr0AaPUoES-16" value="&lt;p class=&quot;MsoNormal&quot; style=&quot;font-size: 19px&quot;&gt;&lt;span style=&quot;color: rgb(62 , 61 , 64) ; letter-spacing: 0pt ; text-transform: none ; font-style: normal ; font-size: 19px&quot;&gt;&lt;font style=&quot;font-size: 19px&quot;&gt;Compulsive sites&lt;/font&gt;&lt;/span&gt;&lt;/p&gt;" style="whiteSpace=wrap;html=1;fontFamily=Helvetica;fontStyle=1;strokeWidth=2;arcSize=12;fontSize=19;labelBackgroundColor=none;fillColor=#ffe6cc;strokeColor=#d79b00;rounded=1;" parent="1" vertex="1">
          <mxGeometry x="585.73" y="340" width="170" height="57" as="geometry" />
        </mxCell>
        <mxCell id="Kxiscqi6HtAr0AaPUoES-18" value="&lt;p class=&quot;MsoNormal&quot; style=&quot;font-size: 19px&quot;&gt;&lt;span style=&quot;color: rgb(62 , 61 , 64) ; letter-spacing: 0pt ; text-transform: none ; font-style: normal ; font-size: 19px&quot;&gt;&lt;font style=&quot;font-size: 19px&quot;&gt;Fill sites (IX)&lt;/font&gt;&lt;/span&gt;&lt;/p&gt;" style="whiteSpace=wrap;html=1;fontFamily=Helvetica;fontStyle=1;strokeWidth=2;arcSize=12;fontSize=19;labelBackgroundColor=none;fillColor=#f5f5f5;strokeColor=#666666;rounded=1;fontColor=#333333;" parent="1" vertex="1">
          <mxGeometry x="530" y="590" width="160" height="57" as="geometry" />
        </mxCell>
        <mxCell id="Kxiscqi6HtAr0AaPUoES-19" value="&lt;p class=&quot;MsoNormal&quot; style=&quot;font-size: 19px&quot;&gt;&lt;font color=&quot;#3e3d40&quot;&gt;Sheep 40K liquid chip panel&lt;/font&gt;&lt;/p&gt;" style="whiteSpace=wrap;html=1;fontFamily=Helvetica;fontStyle=1;strokeWidth=2;arcSize=12;fontSize=19;labelBackgroundColor=none;fillColor=#f8cecc;strokeColor=#b85450;rounded=1;" parent="1" vertex="1">
          <mxGeometry x="127" y="680" width="570" height="57" as="geometry" />
        </mxCell>
        <mxCell id="Kxiscqi6HtAr0AaPUoES-33" value="" style="shape=curlyBracket;whiteSpace=wrap;html=1;flipH=1;strokeWidth=2;rotation=-180;rounded=1;" parent="1" vertex="1">
          <mxGeometry x="45.730000000000004" y="137.5" width="17.27" height="140" as="geometry" />
        </mxCell>
        <mxCell id="Kxiscqi6HtAr0AaPUoES-34" value="" style="shape=curlyBracket;whiteSpace=wrap;html=1;flipH=1;strokeWidth=2;rotation=0;size=0.5;rounded=1;" parent="1" vertex="1">
          <mxGeometry x="768.46" y="137.5" width="17.27" height="140" as="geometry" />
        </mxCell>
        <mxCell id="Kxiscqi6HtAr0AaPUoES-40" value="" style="endArrow=classic;html=1;shadow=0;strokeColor=default;strokeWidth=2;exitX=-0.036;exitY=0.496;exitDx=0;exitDy=0;exitPerimeter=0;curved=1;" parent="1" source="Kxiscqi6HtAr0AaPUoES-33" edge="1">
          <mxGeometry width="50" height="50" relative="1" as="geometry">
            <mxPoint x="41.000000000000014" y="207.5" as="sourcePoint" />
            <mxPoint x="67" y="370" as="targetPoint" />
            <Array as="points">
              <mxPoint x="-9" y="307.5" />
            </Array>
          </mxGeometry>
        </mxCell>
        <mxCell id="Kxiscqi6HtAr0AaPUoES-42" value="" style="endArrow=classic;html=1;shadow=0;strokeColor=default;strokeWidth=2;curved=1;" parent="1" edge="1">
          <mxGeometry width="50" height="50" relative="1" as="geometry">
            <mxPoint x="787" y="208" as="sourcePoint" />
            <mxPoint x="766" y="370" as="targetPoint" />
            <Array as="points">
              <mxPoint x="837" y="300" />
            </Array>
          </mxGeometry>
        </mxCell>
        <mxCell id="Kxiscqi6HtAr0AaPUoES-44" value="" style="shape=curlyBracket;whiteSpace=wrap;html=1;flipH=1;strokeWidth=2;rotation=90;rounded=1;" parent="1" vertex="1">
          <mxGeometry x="397" y="330" width="30" height="163" as="geometry" />
        </mxCell>
        <mxCell id="Kxiscqi6HtAr0AaPUoES-45" style="edgeStyle=orthogonalEdgeStyle;orthogonalLoop=1;jettySize=auto;html=1;exitX=0.1;exitY=0.5;exitDx=0;exitDy=0;exitPerimeter=0;strokeWidth=2;entryX=0.5;entryY=0;entryDx=0;entryDy=0;curved=1;" parent="1" source="Kxiscqi6HtAr0AaPUoES-44" target="Kxiscqi6HtAr0AaPUoES-49" edge="1">
          <mxGeometry relative="1" as="geometry">
            <mxPoint x="411" y="470" as="targetPoint" />
            <Array as="points" />
          </mxGeometry>
        </mxCell>
        <mxCell id="Kxiscqi6HtAr0AaPUoES-47" value="" style="endArrow=classic;html=1;shadow=0;strokeColor=default;strokeWidth=2;entryX=0.954;entryY=0.006;entryDx=0;entryDy=0;entryPerimeter=0;curved=1;" parent="1" target="Kxiscqi6HtAr0AaPUoES-49" edge="1">
          <mxGeometry width="50" height="50" relative="1" as="geometry">
            <mxPoint x="670.02" y="397" as="sourcePoint" />
            <mxPoint x="670.02" y="467" as="targetPoint" />
          </mxGeometry>
        </mxCell>
        <mxCell id="Kxiscqi6HtAr0AaPUoES-48" value="" style="endArrow=classic;html=1;shadow=0;strokeColor=default;strokeWidth=2;entryX=0.058;entryY=0;entryDx=0;entryDy=0;entryPerimeter=0;curved=1;" parent="1" target="Kxiscqi6HtAr0AaPUoES-49" edge="1">
          <mxGeometry width="50" height="50" relative="1" as="geometry">
            <mxPoint x="160.0200000000002" y="397" as="sourcePoint" />
            <mxPoint x="160.0200000000002" y="467" as="targetPoint" />
          </mxGeometry>
        </mxCell>
        <mxCell id="Kxiscqi6HtAr0AaPUoES-49" value="&lt;p class=&quot;MsoNormal&quot; style=&quot;font-size: 19px&quot;&gt;&lt;span style=&quot;color: rgb(62 , 61 , 64) ; letter-spacing: 0pt ; text-transform: none ; font-style: normal ; font-size: 19px&quot;&gt;&lt;font style=&quot;font-size: 19px&quot;&gt;Functional sites&lt;/font&gt;&lt;/span&gt;&lt;/p&gt;" style="whiteSpace=wrap;html=1;fontFamily=Helvetica;fontStyle=1;strokeWidth=2;arcSize=12;fontSize=19;labelBackgroundColor=none;fillColor=#e1d5e7;strokeColor=#9673a6;rounded=1;" parent="1" vertex="1">
          <mxGeometry x="127" y="493" width="570" height="57" as="geometry" />
        </mxCell>
        <mxCell id="Kxiscqi6HtAr0AaPUoES-53" value="" style="endArrow=classic;html=1;shadow=0;strokeColor=default;strokeWidth=2;curved=1;entryX=0.5;entryY=0;entryDx=0;entryDy=0;exitX=0.5;exitY=1;exitDx=0;exitDy=0;" parent="1" source="Kxiscqi6HtAr0AaPUoES-49" target="Kxiscqi6HtAr0AaPUoES-19" edge="1">
          <mxGeometry width="50" height="50" relative="1" as="geometry">
            <mxPoint x="411.9500000000002" y="567" as="sourcePoint" />
            <mxPoint x="412" y="690" as="targetPoint" />
          </mxGeometry>
        </mxCell>
        <mxCell id="Kxiscqi6HtAr0AaPUoES-54" value="" style="endArrow=classic;html=1;shadow=0;strokeColor=default;strokeWidth=2;curved=1;exitX=0;exitY=0.5;exitDx=0;exitDy=0;" parent="1" source="Kxiscqi6HtAr0AaPUoES-18" edge="1">
          <mxGeometry width="50" height="50" relative="1" as="geometry">
            <mxPoint x="474" y="618.16" as="sourcePoint" />
            <mxPoint x="414" y="618" as="targetPoint" />
          </mxGeometry>
        </mxCell>
        <mxCell id="Kxiscqi6HtAr0AaPUoES-57" value="Top 1% of selection signals" style="text;html=1;strokeColor=none;fillColor=none;align=center;verticalAlign=middle;whiteSpace=wrap;rounded=0;shadow=0;fontStyle=1;fontSize=14;" parent="1" vertex="1">
          <mxGeometry x="165.73" y="440" width="124.27" height="30" as="geometry" />
        </mxCell>
        <mxCell id="Kxiscqi6HtAr0AaPUoES-58" value="SDFR" style="text;html=1;strokeColor=none;fillColor=none;align=center;verticalAlign=middle;whiteSpace=wrap;rounded=0;shadow=0;fontStyle=1;fontSize=14;" parent="1" vertex="1">
          <mxGeometry x="415.73" y="440" width="54.27" height="30" as="geometry" />
        </mxCell>
        <mxCell id="Kxiscqi6HtAr0AaPUoES-62" value="Interval" style="text;html=1;strokeColor=none;fillColor=none;align=center;verticalAlign=middle;whiteSpace=wrap;rounded=0;shadow=0;fontStyle=1;fontSize=14;" parent="1" vertex="1">
          <mxGeometry x="439.85999999999996" y="590" width="81.41" height="20" as="geometry" />
        </mxCell>
        <mxCell id="Kxiscqi6HtAr0AaPUoES-69" value="SDFR" style="text;html=1;strokeColor=none;fillColor=none;align=center;verticalAlign=middle;whiteSpace=wrap;rounded=0;shadow=0;fontStyle=1;fontSize=14;" parent="1" vertex="1">
          <mxGeometry x="433.43" y="620" width="94.27" height="30" as="geometry" />
        </mxCell>
      </root>
    </mxGraphModel>
  </diagram>
  <diagram id="cjzSWonzbyOTQheiSOqx" name="Page-2">
    <mxGraphModel dx="782" dy="475" grid="1" gridSize="10" guides="1" tooltips="1" connect="1" arrows="1" fold="1" page="1" pageScale="1" pageWidth="827" pageHeight="1169" math="0" shadow="0">
      <root>
        <mxCell id="NHEbk4I30tydiy182GKr-0" />
        <mxCell id="NHEbk4I30tydiy182GKr-1" parent="NHEbk4I30tydiy182GKr-0" />
        <mxCell id="NHEbk4I30tydiy182GKr-2" value="&lt;p class=&quot;MsoNormal&quot; style=&quot;font-size: 19px&quot;&gt;&lt;span style=&quot;color: rgb(62 , 61 , 64) ; letter-spacing: 0pt ; text-transform: none ; font-style: normal ; font-size: 19px&quot;&gt;&lt;font style=&quot;font-size: 19px&quot;&gt;Domestication (I)&lt;/font&gt;&lt;/span&gt;&lt;/p&gt;" style="whiteSpace=wrap;html=1;fontFamily=Helvetica;fontStyle=1;strokeWidth=2;arcSize=12;fontSize=19;labelBackgroundColor=none;fillColor=#dae8fc;strokeColor=#6c8ebf;shadow=0;rounded=1;" vertex="1" parent="NHEbk4I30tydiy182GKr-1">
          <mxGeometry x="224.73000000000002" y="201" width="170" height="59" as="geometry" />
        </mxCell>
        <mxCell id="NHEbk4I30tydiy182GKr-3" value="&lt;p class=&quot;MsoNormal&quot; style=&quot;font-size: 19px&quot;&gt;&lt;span style=&quot;color: rgb(62 , 61 , 64) ; letter-spacing: 0pt ; text-transform: none ; font-style: normal ; font-size: 19px&quot;&gt;Breeds-specific&amp;nbsp;&lt;/span&gt;&lt;span style=&quot;color: rgb(62 , 61 , 64) ; letter-spacing: 0pt&quot;&gt;(IV)&lt;/span&gt;&lt;/p&gt;&lt;p class=&quot;MsoNormal&quot; style=&quot;font-size: 19px&quot;&gt;&lt;span style=&quot;color: rgb(62 , 61 , 64) ; letter-spacing: 0pt ; text-transform: none ; font-style: normal ; font-size: 19px&quot;&gt;&lt;/span&gt;&lt;/p&gt;" style="whiteSpace=wrap;html=1;fontFamily=Helvetica;fontStyle=1;strokeWidth=2;arcSize=12;fontSize=19;labelBackgroundColor=none;fillColor=#d5e8d4;strokeColor=#82b366;rounded=1;" vertex="1" parent="NHEbk4I30tydiy182GKr-1">
          <mxGeometry x="404.73" y="433.5" width="150" height="57" as="geometry" />
        </mxCell>
        <mxCell id="NHEbk4I30tydiy182GKr-4" value="&lt;p class=&quot;MsoNormal&quot; style=&quot;font-size: 19px&quot;&gt;&lt;span style=&quot;color: rgb(62 , 61 , 64) ; letter-spacing: 0pt ; text-transform: none ; font-style: normal ; font-size: 19px&quot;&gt;&lt;font style=&quot;font-size: 19px&quot;&gt;Sheep QTLdb (V)&lt;/font&gt;&lt;/span&gt;&lt;/p&gt;" style="whiteSpace=wrap;html=1;fontFamily=Helvetica;fontStyle=1;strokeWidth=2;arcSize=12;fontSize=19;labelBackgroundColor=none;fillColor=#d5e8d4;strokeColor=#82b366;rounded=1;" vertex="1" parent="NHEbk4I30tydiy182GKr-1">
          <mxGeometry x="564.73" y="433.5" width="160" height="57" as="geometry" />
        </mxCell>
        <mxCell id="NHEbk4I30tydiy182GKr-5" value="&lt;p class=&quot;MsoNormal&quot; style=&quot;font-size: 19px&quot;&gt;&lt;span style=&quot;color: rgb(62 , 61 , 64) ; letter-spacing: 0pt ; text-transform: none ; font-style: normal ; font-size: 19px&quot;&gt;Selection sweeps&lt;/span&gt;&lt;/p&gt;" style="whiteSpace=wrap;html=1;fontFamily=Helvetica;fontStyle=1;strokeWidth=2;arcSize=12;fontSize=19;labelBackgroundColor=none;fillColor=#dae8fc;strokeColor=#6c8ebf;rounded=1;" vertex="1" parent="NHEbk4I30tydiy182GKr-1">
          <mxGeometry x="224.73000000000002" y="433.5" width="170" height="57" as="geometry" />
        </mxCell>
        <mxCell id="NHEbk4I30tydiy182GKr-6" value="&lt;p class=&quot;MsoNormal&quot; style=&quot;font-size: 19px&quot;&gt;&lt;span style=&quot;color: rgb(62 , 61 , 64) ; letter-spacing: 0pt ; text-transform: none ; font-style: normal ; font-size: 19px&quot;&gt;Selection&amp;nbsp;&lt;/span&gt;&lt;span style=&quot;color: rgb(62 , 61 , 64) ; letter-spacing: 0pt&quot;&gt;sweeps of EUR&amp;nbsp;&lt;/span&gt;&lt;span style=&quot;color: rgb(62 , 61 , 64) ; letter-spacing: 0pt&quot;&gt;(III)&lt;/span&gt;&lt;/p&gt;" style="whiteSpace=wrap;html=1;fontFamily=Helvetica;fontStyle=1;strokeWidth=2;arcSize=12;fontSize=19;labelBackgroundColor=none;fillColor=#dae8fc;strokeColor=#6c8ebf;shadow=0;rounded=1;" vertex="1" parent="NHEbk4I30tydiy182GKr-1">
          <mxGeometry x="224.73000000000002" y="341" width="170" height="59" as="geometry" />
        </mxCell>
        <mxCell id="NHEbk4I30tydiy182GKr-7" value="&lt;p class=&quot;MsoNormal&quot; style=&quot;font-size: 19px&quot;&gt;&lt;span style=&quot;color: rgb(62 , 61 , 64) ; letter-spacing: 0pt ; text-transform: none ; font-style: normal ; font-size: 19px&quot;&gt;&lt;font style=&quot;font-size: 19px&quot;&gt;Selection sweeps of CN&amp;nbsp;&lt;/font&gt;&lt;/span&gt;&lt;span style=&quot;color: rgb(62 , 61 , 64) ; letter-spacing: 0pt&quot;&gt;(II)&lt;/span&gt;&lt;/p&gt;" style="whiteSpace=wrap;html=1;fontFamily=Helvetica;fontStyle=1;strokeWidth=2;arcSize=12;fontSize=19;labelBackgroundColor=none;fillColor=#dae8fc;strokeColor=#6c8ebf;shadow=0;rounded=1;" vertex="1" parent="NHEbk4I30tydiy182GKr-1">
          <mxGeometry x="224.73000000000002" y="271.5" width="170" height="58.5" as="geometry" />
        </mxCell>
        <mxCell id="NHEbk4I30tydiy182GKr-8" value="&lt;p class=&quot;MsoNormal&quot; style=&quot;font-size: 19px&quot;&gt;&lt;font color=&quot;#3e3d40&quot;&gt;Association (VI)&lt;/font&gt;&lt;/p&gt;" style="whiteSpace=wrap;html=1;fontFamily=Helvetica;fontStyle=1;strokeWidth=2;arcSize=12;fontSize=19;labelBackgroundColor=none;fillColor=#ffe6cc;strokeColor=#d79b00;rounded=1;" vertex="1" parent="NHEbk4I30tydiy182GKr-1">
          <mxGeometry x="734.73" y="200" width="170" height="60" as="geometry" />
        </mxCell>
        <mxCell id="NHEbk4I30tydiy182GKr-9" value="&lt;p class=&quot;MsoNormal&quot; style=&quot;font-size: 19px&quot;&gt;&lt;span style=&quot;color: rgb(62 , 61 , 64) ; letter-spacing: 0pt ; text-transform: none ; font-style: normal ; font-size: 19px&quot;&gt;&lt;font style=&quot;font-size: 19px&quot;&gt;Y chromosome&amp;nbsp;&lt;/font&gt;&lt;/span&gt;&lt;span style=&quot;color: rgb(62 , 61 , 64) ; letter-spacing: 0pt&quot;&gt;(VII)&lt;/span&gt;&lt;/p&gt;" style="whiteSpace=wrap;html=1;fontFamily=Helvetica;fontStyle=1;strokeWidth=2;arcSize=12;fontSize=19;labelBackgroundColor=none;fillColor=#ffe6cc;strokeColor=#d79b00;rounded=1;" vertex="1" parent="NHEbk4I30tydiy182GKr-1">
          <mxGeometry x="734.73" y="270.5" width="170" height="60" as="geometry" />
        </mxCell>
        <mxCell id="NHEbk4I30tydiy182GKr-10" value="&lt;p class=&quot;MsoNormal&quot; style=&quot;font-size: 19px&quot;&gt;&lt;span style=&quot;color: rgb(62 , 61 , 64) ; letter-spacing: 0pt ; text-transform: none ; font-size: 19px&quot;&gt;&lt;font style=&quot;font-size: 19px&quot;&gt;Brucella (VIII)&lt;/font&gt;&lt;/span&gt;&lt;/p&gt;" style="whiteSpace=wrap;html=1;fontFamily=Helvetica;fontStyle=1;strokeWidth=2;arcSize=12;fontSize=19;labelBackgroundColor=none;fillColor=#ffe6cc;strokeColor=#d79b00;rounded=1;" vertex="1" parent="NHEbk4I30tydiy182GKr-1">
          <mxGeometry x="734.73" y="340" width="170" height="60" as="geometry" />
        </mxCell>
        <mxCell id="NHEbk4I30tydiy182GKr-11" value="&lt;p class=&quot;MsoNormal&quot; style=&quot;font-size: 19px&quot;&gt;&lt;span style=&quot;color: rgb(62 , 61 , 64) ; letter-spacing: 0pt ; text-transform: none ; font-style: normal ; font-size: 19px&quot;&gt;&lt;font style=&quot;font-size: 19px&quot;&gt;Compulsive sites&lt;/font&gt;&lt;/span&gt;&lt;/p&gt;" style="whiteSpace=wrap;html=1;fontFamily=Helvetica;fontStyle=1;strokeWidth=2;arcSize=12;fontSize=19;labelBackgroundColor=none;fillColor=#ffe6cc;strokeColor=#d79b00;rounded=1;" vertex="1" parent="NHEbk4I30tydiy182GKr-1">
          <mxGeometry x="734.73" y="433.5" width="170" height="57" as="geometry" />
        </mxCell>
        <mxCell id="NHEbk4I30tydiy182GKr-12" value="&lt;p class=&quot;MsoNormal&quot; style=&quot;font-size: 19px&quot;&gt;&lt;span style=&quot;color: rgb(62 , 61 , 64) ; letter-spacing: 0pt ; text-transform: none ; font-style: normal ; font-size: 19px&quot;&gt;&lt;font style=&quot;font-size: 19px&quot;&gt;Fill sites (IX)&lt;/font&gt;&lt;/span&gt;&lt;/p&gt;" style="whiteSpace=wrap;html=1;fontFamily=Helvetica;fontStyle=1;strokeWidth=2;arcSize=12;fontSize=19;labelBackgroundColor=none;fillColor=#f5f5f5;strokeColor=#666666;rounded=1;fontColor=#333333;" vertex="1" parent="NHEbk4I30tydiy182GKr-1">
          <mxGeometry x="679" y="683.5" width="160" height="57" as="geometry" />
        </mxCell>
        <mxCell id="NHEbk4I30tydiy182GKr-13" value="&lt;p class=&quot;MsoNormal&quot; style=&quot;font-size: 19px&quot;&gt;&lt;font color=&quot;#3e3d40&quot;&gt;Sheep 40K liquid chip panel&lt;/font&gt;&lt;/p&gt;" style="whiteSpace=wrap;html=1;fontFamily=Helvetica;fontStyle=1;strokeWidth=2;arcSize=12;fontSize=19;labelBackgroundColor=none;fillColor=#f8cecc;strokeColor=#b85450;rounded=1;" vertex="1" parent="NHEbk4I30tydiy182GKr-1">
          <mxGeometry x="276" y="773.5" width="570" height="57" as="geometry" />
        </mxCell>
        <mxCell id="NHEbk4I30tydiy182GKr-14" value="" style="shape=curlyBracket;whiteSpace=wrap;html=1;flipH=1;strokeWidth=2;rotation=-180;rounded=1;" vertex="1" parent="NHEbk4I30tydiy182GKr-1">
          <mxGeometry x="194.73000000000002" y="231" width="17.27" height="140" as="geometry" />
        </mxCell>
        <mxCell id="NHEbk4I30tydiy182GKr-15" value="" style="shape=curlyBracket;whiteSpace=wrap;html=1;flipH=1;strokeWidth=2;rotation=0;size=0.5;rounded=1;" vertex="1" parent="NHEbk4I30tydiy182GKr-1">
          <mxGeometry x="917.46" y="231" width="17.27" height="140" as="geometry" />
        </mxCell>
        <mxCell id="NHEbk4I30tydiy182GKr-16" value="" style="endArrow=classic;html=1;shadow=0;strokeColor=default;strokeWidth=2;exitX=-0.036;exitY=0.496;exitDx=0;exitDy=0;exitPerimeter=0;curved=1;" edge="1" parent="NHEbk4I30tydiy182GKr-1" source="NHEbk4I30tydiy182GKr-14">
          <mxGeometry width="50" height="50" relative="1" as="geometry">
            <mxPoint x="190" y="301" as="sourcePoint" />
            <mxPoint x="216" y="463.5" as="targetPoint" />
            <Array as="points">
              <mxPoint x="140" y="401" />
            </Array>
          </mxGeometry>
        </mxCell>
        <mxCell id="NHEbk4I30tydiy182GKr-17" value="" style="endArrow=classic;html=1;shadow=0;strokeColor=default;strokeWidth=2;curved=1;" edge="1" parent="NHEbk4I30tydiy182GKr-1">
          <mxGeometry width="50" height="50" relative="1" as="geometry">
            <mxPoint x="936" y="301.5" as="sourcePoint" />
            <mxPoint x="915" y="463.5" as="targetPoint" />
            <Array as="points">
              <mxPoint x="986" y="393.5" />
            </Array>
          </mxGeometry>
        </mxCell>
        <mxCell id="NHEbk4I30tydiy182GKr-18" value="" style="shape=curlyBracket;whiteSpace=wrap;html=1;flipH=1;strokeWidth=2;rotation=90;rounded=1;" vertex="1" parent="NHEbk4I30tydiy182GKr-1">
          <mxGeometry x="546" y="423.5" width="30" height="163" as="geometry" />
        </mxCell>
        <mxCell id="NHEbk4I30tydiy182GKr-19" style="edgeStyle=orthogonalEdgeStyle;orthogonalLoop=1;jettySize=auto;html=1;exitX=0.1;exitY=0.5;exitDx=0;exitDy=0;exitPerimeter=0;strokeWidth=2;entryX=0.5;entryY=0;entryDx=0;entryDy=0;curved=1;" edge="1" parent="NHEbk4I30tydiy182GKr-1" source="NHEbk4I30tydiy182GKr-18" target="NHEbk4I30tydiy182GKr-22">
          <mxGeometry relative="1" as="geometry">
            <mxPoint x="560" y="563.5" as="targetPoint" />
            <Array as="points" />
          </mxGeometry>
        </mxCell>
        <mxCell id="NHEbk4I30tydiy182GKr-20" value="" style="endArrow=classic;html=1;shadow=0;strokeColor=default;strokeWidth=2;entryX=0.954;entryY=0.006;entryDx=0;entryDy=0;entryPerimeter=0;curved=1;" edge="1" parent="NHEbk4I30tydiy182GKr-1" target="NHEbk4I30tydiy182GKr-22">
          <mxGeometry width="50" height="50" relative="1" as="geometry">
            <mxPoint x="819.02" y="490.5" as="sourcePoint" />
            <mxPoint x="819.02" y="560.5" as="targetPoint" />
          </mxGeometry>
        </mxCell>
        <mxCell id="NHEbk4I30tydiy182GKr-21" value="" style="endArrow=classic;html=1;shadow=0;strokeColor=default;strokeWidth=2;entryX=0.058;entryY=0;entryDx=0;entryDy=0;entryPerimeter=0;curved=1;" edge="1" parent="NHEbk4I30tydiy182GKr-1" target="NHEbk4I30tydiy182GKr-22">
          <mxGeometry width="50" height="50" relative="1" as="geometry">
            <mxPoint x="309.0200000000002" y="490.5" as="sourcePoint" />
            <mxPoint x="309.0200000000002" y="560.5" as="targetPoint" />
          </mxGeometry>
        </mxCell>
        <mxCell id="NHEbk4I30tydiy182GKr-22" value="&lt;p class=&quot;MsoNormal&quot; style=&quot;font-size: 19px&quot;&gt;&lt;span style=&quot;color: rgb(62 , 61 , 64) ; letter-spacing: 0pt ; text-transform: none ; font-style: normal ; font-size: 19px&quot;&gt;&lt;font style=&quot;font-size: 19px&quot;&gt;Functional sites&lt;/font&gt;&lt;/span&gt;&lt;/p&gt;" style="whiteSpace=wrap;html=1;fontFamily=Helvetica;fontStyle=1;strokeWidth=2;arcSize=12;fontSize=19;labelBackgroundColor=none;fillColor=#e1d5e7;strokeColor=#9673a6;rounded=1;" vertex="1" parent="NHEbk4I30tydiy182GKr-1">
          <mxGeometry x="276" y="586.5" width="570" height="57" as="geometry" />
        </mxCell>
        <mxCell id="NHEbk4I30tydiy182GKr-23" value="" style="endArrow=classic;html=1;shadow=0;strokeColor=default;strokeWidth=2;curved=1;entryX=0.5;entryY=0;entryDx=0;entryDy=0;exitX=0.5;exitY=1;exitDx=0;exitDy=0;" edge="1" parent="NHEbk4I30tydiy182GKr-1" source="NHEbk4I30tydiy182GKr-22" target="NHEbk4I30tydiy182GKr-13">
          <mxGeometry width="50" height="50" relative="1" as="geometry">
            <mxPoint x="560.9500000000003" y="660.5" as="sourcePoint" />
            <mxPoint x="561" y="783.5" as="targetPoint" />
          </mxGeometry>
        </mxCell>
        <mxCell id="NHEbk4I30tydiy182GKr-24" value="" style="endArrow=classic;html=1;shadow=0;strokeColor=default;strokeWidth=2;curved=1;exitX=0;exitY=0.5;exitDx=0;exitDy=0;" edge="1" parent="NHEbk4I30tydiy182GKr-1" source="NHEbk4I30tydiy182GKr-12">
          <mxGeometry width="50" height="50" relative="1" as="geometry">
            <mxPoint x="623" y="711.66" as="sourcePoint" />
            <mxPoint x="563" y="711.5" as="targetPoint" />
          </mxGeometry>
        </mxCell>
        <mxCell id="NHEbk4I30tydiy182GKr-25" value="Fst,&amp;nbsp;&lt;span style=&quot;font-size: 14px ; font-family: &amp;#34;times new roman&amp;#34;&quot;&gt;π&lt;/span&gt;" style="text;html=1;strokeColor=none;fillColor=none;align=center;verticalAlign=middle;whiteSpace=wrap;rounded=0;shadow=0;fontStyle=1;fontSize=14;" vertex="1" parent="NHEbk4I30tydiy182GKr-1">
          <mxGeometry x="314.73" y="533.5" width="54.27" height="30" as="geometry" />
        </mxCell>
        <mxCell id="NHEbk4I30tydiy182GKr-26" value="SNP density" style="text;html=1;strokeColor=none;fillColor=none;align=center;verticalAlign=middle;whiteSpace=wrap;rounded=0;shadow=0;fontStyle=1;fontSize=14;" vertex="1" parent="NHEbk4I30tydiy182GKr-1">
          <mxGeometry x="564.73" y="533.5" width="94.27" height="30" as="geometry" />
        </mxCell>
        <mxCell id="NHEbk4I30tydiy182GKr-27" value="Literature" style="text;html=1;strokeColor=none;fillColor=none;align=center;verticalAlign=middle;whiteSpace=wrap;rounded=0;shadow=0;fontStyle=1;fontSize=14;" vertex="1" parent="NHEbk4I30tydiy182GKr-1">
          <mxGeometry x="824.73" y="533.5" width="80" height="30" as="geometry" />
        </mxCell>
        <mxCell id="NHEbk4I30tydiy182GKr-28" value="Distance" style="text;html=1;strokeColor=none;fillColor=none;align=center;verticalAlign=middle;whiteSpace=wrap;rounded=0;shadow=0;fontStyle=1;fontSize=14;" vertex="1" parent="NHEbk4I30tydiy182GKr-1">
          <mxGeometry x="588.8599999999999" y="683.5" width="81.41" height="20" as="geometry" />
        </mxCell>
        <mxCell id="NHEbk4I30tydiy182GKr-29" value="SNP density" style="text;html=1;strokeColor=none;fillColor=none;align=center;verticalAlign=middle;whiteSpace=wrap;rounded=0;shadow=0;fontStyle=1;fontSize=14;" vertex="1" parent="NHEbk4I30tydiy182GKr-1">
          <mxGeometry x="582.4300000000001" y="713.5" width="94.27" height="30" as="geometry" />
        </mxCell>
      </root>
    </mxGraphModel>
  </diagram>
</mxfile>
